<?xml version="1.0" encoding="utf-8"?>
<!-- Generator: Adobe Illustrator 27.4.1, SVG Export Plug-In . SVG Version: 6.00 Build 0)  -->
<svg version="1.1" id="Vrstva_1" xmlns="http://www.w3.org/2000/svg" xmlns:xlink="http://www.w3.org/1999/xlink" x="0px" y="0px"
	 width="24px" height="24px" viewBox="0 0 24 24" style="enable-background:new 0 0 24 24;" xml:space="preserve">
<style type="text/css">
	.st0{fill:none;}
	.st1{fill:#0091EA;}
	.st2{fill:#ABDAF9;}
</style>
<g id="Group_9999" transform="translate(-97 -149)">
	<path id="Path_3228" class="st0" d="M97,149h24v24H97V149z"/>
	<path id="calendar-alt" class="st1" d="M101,158.9v9.7c0,1,0.8,1.7,1.7,1.7h12.6c0.9,0,1.7-0.8,1.7-1.7v-9.7H101z M105.6,167.6
		c0,0.2-0.2,0.4-0.4,0.4h-1.4c-0.2,0-0.4-0.2-0.4-0.4v-1.4c0-0.2,0.2-0.4,0.4-0.4h1.4c0.2,0,0.4,0.2,0.4,0.4V167.6z M105.6,163
		c0,0.2-0.2,0.4-0.4,0.4h-1.4c-0.2,0-0.4-0.2-0.4-0.4v-1.4c0-0.2,0.2-0.4,0.4-0.4h1.4c0.2,0,0.4,0.2,0.4,0.4V163z M110.1,167.6
		c0,0.2-0.2,0.4-0.4,0.4h-1.4c-0.2,0-0.4-0.2-0.4-0.4v-1.4c0-0.2,0.2-0.4,0.4-0.4h1.4c0.2,0,0.4,0.2,0.4,0.4V167.6z M110.1,163
		c0,0.2-0.2,0.4-0.4,0.4h-1.4c-0.2,0-0.4-0.2-0.4-0.4v-1.4c0-0.2,0.2-0.4,0.4-0.4h1.4c0.2,0,0.4,0.2,0.4,0.4V163z M114.7,167.6
		c0,0.2-0.2,0.4-0.4,0.4h-1.4c-0.2,0-0.4-0.2-0.4-0.4v-1.4c0-0.2,0.2-0.4,0.4-0.4h1.4c0.2,0,0.4,0.2,0.4,0.4V167.6z M114.7,163
		c0,0.2-0.2,0.4-0.4,0.4h-1.4c-0.2,0-0.4-0.2-0.4-0.4v-1.4c0-0.2,0.2-0.4,0.4-0.4h1.4c0.2,0,0.4,0.2,0.4,0.4V163z M115.3,154.3
		L115.3,154.3l-1.7,0v-1.7c0-0.3-0.3-0.6-0.6-0.6h-1.1c-0.3,0-0.6,0.3-0.6,0.6v1.7h-4.6v-1.7c0-0.3-0.2-0.6-0.6-0.6H105
		c-0.3,0-0.6,0.3-0.6,0.6v1.7h-1.7c-0.9,0-1.7,0.8-1.7,1.7v1.7h16V156C117,155,116.2,154.3,115.3,154.3z"/>
	<path class="st2" d="M105.6,166.1v1.4c0,0.2-0.2,0.4-0.4,0.4h-1.4c-0.2,0-0.4-0.2-0.4-0.4v-1.4c0-0.2,0.2-0.4,0.4-0.4h1.4
		C105.4,165.7,105.6,165.9,105.6,166.1z"/>
	<path class="st2" d="M110.1,166.1v1.4c0,0.2-0.2,0.4-0.4,0.4h-1.4c-0.2,0-0.4-0.2-0.4-0.4v-1.4c0-0.2,0.2-0.4,0.4-0.4h1.4
		C110,165.7,110.1,165.9,110.1,166.1z"/>
	<path class="st2" d="M114.7,166.1v1.4c0,0.2-0.2,0.4-0.4,0.4h-1.4c-0.2,0-0.4-0.2-0.4-0.4v-1.4c0-0.2,0.2-0.4,0.4-0.4h1.4
		C114.5,165.7,114.7,165.9,114.7,166.1z"/>
	<path class="st2" d="M114.7,161.6v1.4c0,0.2-0.2,0.4-0.4,0.4h-1.4c-0.2,0-0.4-0.2-0.4-0.4v-1.4c0-0.2,0.2-0.4,0.4-0.4h1.4
		C114.5,161.1,114.7,161.3,114.7,161.6z"/>
	<path class="st2" d="M110.1,161.6v1.4c0,0.2-0.2,0.4-0.4,0.4h-1.4c-0.2,0-0.4-0.2-0.4-0.4v-1.4c0-0.2,0.2-0.4,0.4-0.4h1.4
		C110,161.1,110.1,161.3,110.1,161.6z"/>
	<path class="st2" d="M105.6,161.6v1.4c0,0.2-0.2,0.4-0.4,0.4h-1.4c-0.2,0-0.4-0.2-0.4-0.4v-1.4c0-0.2,0.2-0.4,0.4-0.4h1.4
		C105.4,161.1,105.6,161.3,105.6,161.6z"/>
</g>
</svg>
