<?xml version="1.0" encoding="utf-8"?>
<!-- Generator: Adobe Illustrator 27.4.1, SVG Export Plug-In . SVG Version: 6.00 Build 0)  -->
<svg version="1.1" id="Vrstva_1" xmlns="http://www.w3.org/2000/svg" xmlns:xlink="http://www.w3.org/1999/xlink" x="0px" y="0px"
	 width="24px" height="24px" viewBox="0 0 24 24" style="enable-background:new 0 0 24 24;" xml:space="preserve">
<style type="text/css">
	.st0{fill:none;}
	.st1{fill:#8E9B9E;}
</style>
<g id="Group_10002" transform="translate(-24 -115)">
	<rect id="Rectangle_558" x="24" y="115" class="st0" width="24" height="24"/>
	<path id="home-lg-alt" class="st1" d="M45.8,125.6l-8.6-7.1c-0.7-0.6-1.8-0.6-2.5,0l-8.6,7.1c-0.2,0.2-0.3,0.6-0.1,0.8l0.4,0.4
		c0.2,0.2,0.5,0.3,0.8,0.1c0,0,0,0,0,0l1-0.8v2h0v7.3c0,0.3,0.3,0.6,0.6,0.6h14.5c0.3,0,0.6-0.3,0.6-0.6c0,0,0,0,0,0v-9.4l1,0.8
		c0.2,0.2,0.6,0.2,0.8-0.1c0,0,0,0,0,0l0.4-0.4C46.1,126.1,46,125.8,45.8,125.6L45.8,125.6z M42.1,125.9L42.1,125.9l0,8.4h-3.9v-5.1
		c0-0.6-0.5-1.1-1.1-1.1c0,0,0,0,0,0h-2.2c-0.6,0-1.1,0.5-1.1,1.1c0,0,0,0,0,0v5.1h-3.9v-9.5l0,0v-0.1l6.1-5.1l6.1,5.1V125.9z"/>
</g>
</svg>
