<svg xmlns="http://www.w3.org/2000/svg" width="24" height="24" viewBox="0 0 24 24">
  <g id="Group_10048" data-name="Group 10048" transform="translate(-285 -480)">
    <path id="play-circle" d="M22.665,17.274l-7.1-4.315a.969.969,0,0,0-1.44.847v8.387a.97.97,0,0,0,1.44.847l7.1-4.073A.971.971,0,0,0,22.665,17.274ZM28,18A10,10,0,1,0,18,28,10,10,0,0,0,28,18ZM9.935,18A8.065,8.065,0,1,1,18,26.065,8.062,8.062,0,0,1,9.935,18Z" transform="translate(279 474)" fill="#3cbe52"/>
    <rect id="Rectangle_3175" data-name="Rectangle 3175" width="24" height="24" transform="translate(285 480)" fill="none"/>
  </g>
</svg>
