<?xml version="1.0" encoding="UTF-8"?>
<svg xmlns="http://www.w3.org/2000/svg" version="1.1" viewBox="0 0 24 24">
  <defs>
    <style>
      .cls-1 {
        fill: none;
      }

      .cls-2 {
        fill: #0091ea;
      }
    </style>
  </defs>
  <!-- Generator: Adobe Illustrator 28.7.1, SVG Export Plug-In . SVG Version: 1.2.0 Build 142)  -->
  <g>
    <g id="Vrstva_1">
      <g id="Group_10034">
        <rect id="Rectangle_3169" class="cls-1" width="24" height="24"/>
        <path id="plus-circle" class="cls-2" d="M16.6,11.4v1.2c0,.2-.2.4-.4.4h-3.2v3.2c0,.2-.2.4-.4.4h-1.2c-.2,0-.4-.2-.4-.4v-3.2h-3.2c-.2,0-.4-.2-.4-.4v-1.2c0-.2.2-.4.4-.4h3.2v-3.2c0-.2.2-.4.4-.4h1.2c.2,0,.4.2.4.4v3.2h3.2c.2,0,.4.2.4.4ZM21,12c0,5-4,9-9,9S3,17,3,12,7,3,12,3s9,4,9,9ZM19.3,12c0-4-3.2-7.3-7.3-7.3s-7.3,3.2-7.3,7.3,3.2,7.3,7.3,7.3h0c4,0,7.3-3.2,7.3-7.3h0Z"/>
      </g>
    </g>
  </g>
</svg>