<svg id="ico_my-device" xmlns="http://www.w3.org/2000/svg" width="32" height="32" viewBox="0 0 32 32">
  <rect id="Rectangle_3822" data-name="Rectangle 3822" width="32" height="32" fill="none"/>
  <path id="Path_5400" data-name="Path 5400" d="M18.277,16.425H5.341a1.06,1.06,0,0,1-1.107-1V5.43A1.06,1.06,0,0,1,5.341,4.425H18.277A1.059,1.059,0,0,1,19.383,5.43v9.99a1.059,1.059,0,0,1-1.106,1" transform="translate(4.191 0.575)" fill="#abdaf9"/>
  <rect id="Rectangle_3544" data-name="Rectangle 3544" width="21.617" height="29" rx="3.064" transform="translate(5.191 1.5)" fill="none" stroke="#0091ea" stroke-linecap="round" stroke-linejoin="round" stroke-width="2"/>
  <rect id="Rectangle_3545" data-name="Rectangle 3545" width="15.149" height="12" rx="0.5" transform="translate(8.425 5)" fill="none" stroke="#0091ea" stroke-linecap="round" stroke-linejoin="round" stroke-width="2"/>
  <path id="Path_5404" data-name="Path 5404" d="M18.106,20.723a1.17,1.17,0,1,0,1.17,1.171,1.172,1.172,0,0,0-1.17-1.171" transform="translate(3.191 -0.723)" fill="#0091ea"/>
  <path id="Path_5405" data-name="Path 5405" d="M18.106,20.723a1.17,1.17,0,1,0,1.17,1.171,1.172,1.172,0,0,0-1.17-1.171" transform="translate(3.191 2.979)" fill="#0091ea"/>
  <rect id="Rectangle_3546" data-name="Rectangle 3546" width="1" height="6.511" transform="translate(14.949 21.048) rotate(45)" fill="none" stroke="#0091ea" stroke-linecap="round" stroke-linejoin="round" stroke-width="1.5"/>
  <rect id="Rectangle_3547" data-name="Rectangle 3547" width="6.511" height="1" transform="translate(11.052 21.047) rotate(45)" fill="none" stroke="#0091ea" stroke-linecap="round" stroke-linejoin="round" stroke-width="1.5"/>
</svg>
