<svg id="icon_24x24_devices_radiator" data-name="icon / 24x24 / devices / radiator" xmlns="http://www.w3.org/2000/svg" xmlns:xlink="http://www.w3.org/1999/xlink" width="23" height="23" viewBox="0 0 23 23">
  <defs>
    <clipPath id="clip-path">
      <rect id="Rectangle_3266" data-name="Rectangle 3266" width="23" height="23" fill="none" opacity="0"/>
    </clipPath>
  </defs>
  <g id="Group_9900" data-name="Group 9900" clip-path="url(#clip-path)">
    <path id="Path_4653" data-name="Path 4653" d="M7.246,2.574a1.25,1.25,0,0,0-.357,1.432,7.848,7.848,0,0,1,.452.782,1.605,1.605,0,0,1-.482,1.538" transform="translate(-0.389 -0.3)" fill="none" stroke="#e53935" stroke-linecap="round" stroke-linejoin="round" stroke-width="1.5"/>
    <path id="Path_4654" data-name="Path 4654" d="M12.143,2.574a1.25,1.25,0,0,0-.357,1.432,7.848,7.848,0,0,1,.452.782,1.605,1.605,0,0,1-.482,1.538" transform="translate(-0.493 -0.3)" fill="none" stroke="#e53935" stroke-linecap="round" stroke-linejoin="round" stroke-width="1.5"/>
    <path id="Path_4655" data-name="Path 4655" d="M17.039,2.574a1.25,1.25,0,0,0-.357,1.432,7.848,7.848,0,0,1,.452.782,1.605,1.605,0,0,1-.482,1.538" transform="translate(-0.597 -0.3)" fill="none" stroke="#e53935" stroke-linecap="round" stroke-linejoin="round" stroke-width="1.5"/>
    <path id="Path_4656" data-name="Path 4656" d="M13.377,9.876v9.865a1.409,1.409,0,0,1-2.819,0V9.876a1.409,1.409,0,0,1,2.819,0Z" transform="translate(-0.469 -0.425)" fill="#ffcdd2" stroke="#e53935" stroke-linecap="round" stroke-linejoin="round" stroke-width="1.5"/>
    <path id="Path_4657" data-name="Path 4657" d="M8.307,9.876v9.865a1.409,1.409,0,0,1-2.819,0V9.876a1.409,1.409,0,0,1,2.819,0Z" transform="translate(-0.361 -0.425)" fill="#ffcdd2" stroke="#e53935" stroke-linecap="round" stroke-linejoin="round" stroke-width="1.5"/>
    <path id="Path_4658" data-name="Path 4658" d="M18.447,9.876v9.865a1.409,1.409,0,0,1-2.819,0V9.876a1.409,1.409,0,0,1,2.819,0Z" transform="translate(-0.577 -0.425)" fill="#ffcdd2" stroke="#e53935" stroke-linecap="round" stroke-linejoin="round" stroke-width="1.5"/>
    <path id="Path_4659" data-name="Path 4659" d="M5.434,11.537v2.32H3.965a1.167,1.167,0,0,1,0-2.32Z" transform="translate(-0.307 -0.49)" fill="none" stroke="#e53935" stroke-linecap="round" stroke-linejoin="round" stroke-width="1.5"/>
    <rect id="Rectangle_3264" data-name="Rectangle 3264" width="2.143" height="2.32" transform="translate(7.945 11.047)" fill="none" stroke="#e53935" stroke-linecap="round" stroke-linejoin="round" stroke-width="1.5"/>
    <rect id="Rectangle_3265" data-name="Rectangle 3265" width="2.143" height="2.32" transform="translate(12.907 11.047)" fill="none" stroke="#e53935" stroke-linecap="round" stroke-linejoin="round" stroke-width="1.5"/>
    <path id="Path_4660" data-name="Path 4660" d="M21.014,12.7a1.1,1.1,0,0,1-1.037,1.156H18.508v-2.32h1.468A1.1,1.1,0,0,1,21.014,12.7Z" transform="translate(-0.638 -0.49)" fill="none" stroke="#e53935" stroke-linecap="round" stroke-linejoin="round" stroke-width="1.5"/>
  </g>
</svg>
