<svg id="airflow" xmlns="http://www.w3.org/2000/svg" width="40" height="40" viewBox="0 0 40 40">
  <rect id="Rectangle_4892" data-name="Rectangle 4892" width="40" height="40" fill="none"/>
  <path id="Path_6234" data-name="Path 6234" d="M17.946,5.955c-2.887-.507-7.951,2.725-.314,11.431,0,0-1.172-1.78.54-4.27,1.413-2.054,5.374-6.178-.226-7.161" transform="translate(2.346 5.007)" fill="#abdaf9"/>
  <path id="Path_6235" data-name="Path 6235" d="M17.946,5.955c-2.887-.507-7.951,2.725-.314,11.431,0,0-1.172-1.78.54-4.27C19.584,11.062,23.546,6.937,17.946,5.955Z" transform="translate(2.346 5.007)" fill="none" stroke="#0091ea" stroke-linecap="round" stroke-linejoin="round" stroke-width="2"/>
  <path id="Path_6236" data-name="Path 6236" d="M28.58,27.187c1.883-2.247,1.615-8.248-9.742-5.987,0,0,2.127-.126,3.427,2.6,1.073,2.25,2.663,7.743,6.315,3.385" transform="translate(0.484 -0.262)" fill="#abdaf9"/>
  <path id="Path_6237" data-name="Path 6237" d="M28.58,27.187c1.883-2.247,1.615-8.248-9.742-5.987,0,0,2.127-.126,3.427,2.6C23.338,26.053,24.929,31.545,28.58,27.187Z" transform="translate(0.484 -0.262)" fill="none" stroke="#0091ea" stroke-linecap="round" stroke-linejoin="round" stroke-width="2"/>
  <path id="Path_6238" data-name="Path 6238" d="M5.461,27.167c1.005,2.754,6.335,5.523,10.056-5.443,0,0-.954,1.905-3.968,1.667-2.484-.2-8.037-1.565-6.088,3.776" transform="translate(5.393 -0.627)" fill="#abdaf9"/>
  <path id="Path_6239" data-name="Path 6239" d="M5.461,27.167c1.005,2.754,6.335,5.523,10.056-5.443,0,0-.954,1.905-3.968,1.667C9.064,23.195,3.512,21.826,5.461,27.167Z" transform="translate(5.393 -0.627)" fill="none" stroke="#0091ea" stroke-linecap="round" stroke-linejoin="round" stroke-width="2"/>
  <path id="Path_6240" data-name="Path 6240" d="M21.151,20.888a2.575,2.575,0,1,0-2.575,2.575,2.575,2.575,0,0,0,2.575-2.575" transform="translate(1.494 0.587)" fill="#fff"/>
  <ellipse id="Ellipse_783" data-name="Ellipse 783" cx="2.575" cy="2.575" rx="2.575" ry="2.575" transform="translate(17.494 18.9)" fill="none" stroke="#0091ea" stroke-linecap="round" stroke-linejoin="round" stroke-width="2"/>
</svg>
