<svg id="cleanUp" xmlns="http://www.w3.org/2000/svg" width="40" height="40" viewBox="0 0 40 40">
  <rect id="Rectangle_3401" data-name="Rectangle 3401" width="40" height="40" fill="none"/>
  <path id="Path_6258" data-name="Path 6258" d="M22.728,10.292l-3.671-4.15a1.139,1.139,0,0,0-1.881.25,2.493,2.493,0,0,1-1.734.5,2.353,2.353,0,0,1-1.876-.637,1.647,1.647,0,0,0-1.8-.393.758.758,0,0,0-.222.094,1.124,1.124,0,0,0-.725.644L8.752,11.634a.492.492,0,0,1-.455.3H5.137V8.444a.8.8,0,1,0-1.6,0V27.878H0v1.5a1.255,1.255,0,0,0,1.255,1.256h6.16a1.255,1.255,0,0,0,1.255-1.256v-1.5H5.137V14.23H8.3a2.75,2.75,0,0,0,2.391-1.416l.442,1.07a4.364,4.364,0,0,1-.183,3.722L9.921,19.525a1.134,1.134,0,0,0,1,1.667h1.7v9.464a.888.888,0,1,0,1.776,0V21.192h2.093v9.464a.888.888,0,1,0,1.776,0V21.192h1.7a1.133,1.133,0,0,0,1-1.667l-1.023-1.919c-.029-.053-.04-.111-.066-.165a1.137,1.137,0,0,0,.314.214,1.147,1.147,0,0,0,1.5-.613l1.485-3.53a3.072,3.072,0,0,0-.445-3.22M21.06,12.624l-1.485,3.53a1.128,1.128,0,0,0-.046.229,4.346,4.346,0,0,1,.227-2.5l.706-1.708a3.374,3.374,0,0,0,.2-.756l.346.391a.817.817,0,0,1,.048.814" transform="translate(4.543 4.647)" fill="#8e9b9e"/>
  <path id="Path_6259" data-name="Path 6259" d="M13.792,6.667a2.6,2.6,0,0,0,2.474-2.709,2.865,2.865,0,0,0-.327-1.322,1.321,1.321,0,0,0,1.172-1.3,1.335,1.335,0,0,0-2.671,0c0,.008,0,.015,0,.023a2.241,2.241,0,0,0-.653-.108,2.6,2.6,0,0,0-2.473,2.709,2.6,2.6,0,0,0,2.473,2.709" transform="translate(6.193 3.808)" fill="#8e9b9e"/>
  <path id="Path_6260" data-name="Path 6260" d="M27.645,18.418h-2.39V17.6a.449.449,0,0,0-.449-.449H22.627a.449.449,0,0,0-.449.449v.816h-2.39a.449.449,0,0,0-.449.45V21.31a.449.449,0,0,0,.449.45h.489v7.093a.475.475,0,0,0,.474.474h5.929a.475.475,0,0,0,.474-.474V21.76h.489a.45.45,0,0,0,.45-.45V18.868a.45.45,0,0,0-.45-.45" transform="translate(7.363 6.309)" fill="#8e9b9e"/>
</svg>
