<svg id="mug" xmlns="http://www.w3.org/2000/svg" width="40" height="40" viewBox="0 0 40 40">
  <rect id="Rectangle_4893" data-name="Rectangle 4893" width="40" height="40" fill="none"/>
  <path id="Path_6247" data-name="Path 6247" d="M15.773,30.846h9.986c5.5-4.213,7.066-13.691,7.066-13.691H8.639S10.3,26.633,15.773,30.846Z" transform="translate(0.504 1)" fill="#e4e7ed" stroke="#869497" stroke-linecap="round" stroke-linejoin="round" stroke-width="2"/>
  <path id="Path_6249" data-name="Path 6249" d="M30.774,32.2a1.354,1.354,0,0,0-1.354-1.354H12.045a1.354,1.354,0,1,0,0,2.708H29.42A1.354,1.354,0,0,0,30.774,32.2Z" transform="translate(0.504 1)" fill="#e4e7ed" stroke="#869497" stroke-linecap="round" stroke-linejoin="round" stroke-width="2"/>
  <path id="Path_6250" data-name="Path 6250" d="M10.486,24.8H7.89a1.456,1.456,0,0,1-1.448-1.3l-.265-2.48a1.452,1.452,0,0,1-.007-.148,1.3,1.3,0,0,1,1.307-1.292h1.3" transform="translate(0.504 1)" fill="none" stroke="#869497" stroke-linecap="round" stroke-linejoin="round" stroke-width="2"/>
  <path id="Path_6251" data-name="Path 6251" d="M20.812,14.1c-5.593-2.29-3.419-5.3-1.859-7.735.777-1.208,1.276-1.23.839-3.017.311,1.272,3.712,3.629.964,6.494-1.7,1.768.056,4.258.056,4.258" transform="translate(0.504 1)" fill="#869497"/>
  <path id="Path_6252" data-name="Path 6252" d="M22.151,14.241c-2.679-2.688,1.259-2.863.559-5.726.165.678,1.976,1.933.513,3.459-.9.941-1.122,1.063-1.072,2.267" transform="translate(0.504 1)" fill="#869497"/>
</svg>
