<svg id="icon_24x24_heating_comfort" data-name="icon / 24x24 / heating / comfort" xmlns="http://www.w3.org/2000/svg" width="24" height="24" viewBox="0 0 24 24">
  <rect id="Rectangle_3363" data-name="Rectangle 3363" width="24" height="24" fill="none"/>
  <path id="Path_4801" data-name="Path 4801" d="M17.2,12.281a4.92,4.92,0,0,1-9.84,0,4.92,4.92,0,1,1,9.84,0Z" transform="translate(-0.276 -0.276)" fill="#fba" stroke="#ee2d26" stroke-linecap="round" stroke-linejoin="round" stroke-width="1.5"/>
  <path id="Path_4802" data-name="Path 4802" d="M12.147,18.923a1.04,1.04,0,0,0-.3,1.19,6.77,6.77,0,0,1,.376.65,1.332,1.332,0,0,1-.4,1.277" transform="translate(-0.02 0.578)" fill="none" stroke="#ee2d26" stroke-linecap="round" stroke-linejoin="round" stroke-width="1.5"/>
  <path id="Path_4803" data-name="Path 4803" d="M12.147,2.2a1.039,1.039,0,0,0-.3,1.19,6.625,6.625,0,0,1,.376.649,1.332,1.332,0,0,1-.4,1.277" transform="translate(-0.02 -0.818)" fill="none" stroke="#ee2d26" stroke-linecap="round" stroke-linejoin="round" stroke-width="1.5"/>
  <path id="Path_4804" data-name="Path 4804" d="M18.927,11.892a1.038,1.038,0,0,0,1.19.3,6.77,6.77,0,0,1,.65-.376,1.336,1.336,0,0,1,1.277.4" transform="translate(0.578 -0.02)" fill="none" stroke="#ee2d26" stroke-linecap="round" stroke-linejoin="round" stroke-width="1.5"/>
  <path id="Path_4805" data-name="Path 4805" d="M2.2,11.892a1.038,1.038,0,0,0,1.19.3,6.625,6.625,0,0,1,.649-.376,1.335,1.335,0,0,1,1.277.4" transform="translate(-0.818 -0.02)" fill="none" stroke="#ee2d26" stroke-linecap="round" stroke-linejoin="round" stroke-width="1.5"/>
  <path id="Path_4806" data-name="Path 4806" d="M16.981,16.813a1.038,1.038,0,0,0,.632,1.051,6.66,6.66,0,0,1,.725.194,1.33,1.33,0,0,1,.62,1.186" transform="translate(0.415 0.401)" fill="none" stroke="#ee2d26" stroke-linecap="round" stroke-linejoin="round" stroke-width="1.5"/>
  <path id="Path_4807" data-name="Path 4807" d="M5.154,4.985a1.037,1.037,0,0,0,.631,1.051,6.6,6.6,0,0,1,.725.194,1.335,1.335,0,0,1,.621,1.186" transform="translate(-0.572 -0.586)" fill="none" stroke="#ee2d26" stroke-linecap="round" stroke-linejoin="round" stroke-width="1.5"/>
  <path id="Path_4808" data-name="Path 4808" d="M16.817,7.171a1.037,1.037,0,0,0,1.051-.631,6.614,6.614,0,0,1,.194-.726,1.335,1.335,0,0,1,1.186-.62" transform="translate(0.402 -0.568)" fill="none" stroke="#ee2d26" stroke-linecap="round" stroke-linejoin="round" stroke-width="1.5"/>
  <path id="Path_4809" data-name="Path 4809" d="M4.989,19a1.038,1.038,0,0,0,1.051-.632,6.66,6.66,0,0,1,.194-.725,1.331,1.331,0,0,1,1.186-.62" transform="translate(-0.586 0.419)" fill="none" stroke="#ee2d26" stroke-linecap="round" stroke-linejoin="round" stroke-width="1.5"/>
</svg>
