<svg id="icon_24x24_devices_AirCondition" data-name="icon / 24x24 / devices / AirCondition" xmlns="http://www.w3.org/2000/svg" width="24" height="24" viewBox="0 0 24 24">
  <path id="Path_4537" data-name="Path 4537" d="M22.46,7.666V12.3H2.984V7.666a1.914,1.914,0,0,1,1.91-1.909H20.551A1.914,1.914,0,0,1,22.46,7.666Z" transform="translate(-0.722 -0.58)" fill="#abdaf9"/>
  <path id="Path_4538" data-name="Path 4538" d="M6.878,16.445a1.448,1.448,0,0,0-.359,1.566,8.648,8.648,0,0,1,.454.855,1.855,1.855,0,0,1-.483,1.68" transform="translate(-0.447 0.275)" fill="none" stroke="#0091ea" stroke-linecap="round" stroke-linejoin="round" stroke-width="1.5"/>
  <path id="Path_4539" data-name="Path 4539" d="M10.408,16.445a1.448,1.448,0,0,0-.359,1.566,8.648,8.648,0,0,1,.454.855,1.852,1.852,0,0,1-.483,1.68" transform="translate(-0.164 0.275)" fill="none" stroke="#0091ea" stroke-linecap="round" stroke-linejoin="round" stroke-width="1.5"/>
  <path id="Path_4540" data-name="Path 4540" d="M13.938,16.445a1.45,1.45,0,0,0-.359,1.566,8.648,8.648,0,0,1,.454.855,1.852,1.852,0,0,1-.483,1.68" transform="translate(0.118 0.275)" fill="none" stroke="#0091ea" stroke-linecap="round" stroke-linejoin="round" stroke-width="1.5"/>
  <path id="Path_4541" data-name="Path 4541" d="M17.468,16.445a1.45,1.45,0,0,0-.359,1.566,8.426,8.426,0,0,1,.454.855,1.852,1.852,0,0,1-.483,1.68" transform="translate(0.401 0.275)" fill="none" stroke="#0091ea" stroke-linecap="round" stroke-linejoin="round" stroke-width="1.5"/>
  <path id="Path_4542" data-name="Path 4542" d="M22.46,7.666V12.3H2.984V7.666a1.914,1.914,0,0,1,1.91-1.909H20.551A1.914,1.914,0,0,1,22.46,7.666Z" transform="translate(-0.722 -0.58)" fill="none" stroke="#0091ea" stroke-linecap="round" stroke-linejoin="round" stroke-width="1.5"/>
  <path id="Path_4543" data-name="Path 4543" d="M22.46,11.811v.829a1.914,1.914,0,0,1-1.91,1.909H4.894a1.914,1.914,0,0,1-1.91-1.909v-.829Z" transform="translate(-0.722 -0.096)" fill="none" stroke="#0091ea" stroke-linecap="round" stroke-linejoin="round" stroke-width="1.5"/>
  <line id="Line_915" data-name="Line 915" x2="7.145" transform="translate(8.427 8.414)" fill="none" stroke="#0091ea" stroke-linecap="round" stroke-linejoin="round" stroke-width="1.5"/>
  <rect id="Rectangle_3111" data-name="Rectangle 3111" width="24" height="24" fill="none"/>
</svg>
