<svg id="icon_24x24_devices_thermometer" data-name="icon / 24x24 / devices / thermometer" xmlns="http://www.w3.org/2000/svg" xmlns:xlink="http://www.w3.org/1999/xlink" width="126" height="126" viewBox="0 0 126 126">
  <defs>
    <clipPath id="clip-path">
      <rect id="Rectangle_3248" data-name="Rectangle 3248" width="126" height="126" fill="none"/>
    </clipPath>
  </defs>
  <g id="Group_10124" data-name="Group 10124" transform="translate(34.35 10.5)">
    <g id="Group_9959" data-name="Group 9959">
      <path id="Path_4734" data-name="Path 4734" d="M43.562,52.568V14.894a14.148,14.148,0,0,0-28.3,0V52.568a28.658,28.658,0,1,0,28.3,0Z" transform="translate(-0.75 -0.75)" fill="none" stroke="#0091ea" stroke-linecap="round" stroke-linejoin="round" stroke-width="3"/>
      <line id="Line_1070" data-name="Line 1070" x2="12.197" transform="translate(22.544 11.205)" fill="none" stroke="#0091ea" stroke-linecap="round" stroke-linejoin="round" stroke-width="3"/>
      <line id="Line_1070-2" data-name="Line 1070" x2="12.197" transform="translate(22.544 19.205)" fill="none" stroke="#0091ea" stroke-linecap="round" stroke-linejoin="round" stroke-width="3"/>
      <line id="Line_1070-3" data-name="Line 1070" x2="12.197" transform="translate(22.544 27.205)" fill="none" stroke="#0091ea" stroke-linecap="round" stroke-linejoin="round" stroke-width="3"/>
      <line id="Line_1070-4" data-name="Line 1070" x2="12.197" transform="translate(22.544 35.205)" fill="none" stroke="#0091ea" stroke-linecap="round" stroke-linejoin="round" stroke-width="3"/>
      <line id="Line_1070-5" data-name="Line 1070" x2="12.197" transform="translate(22.544 43.205)" fill="none" stroke="#0091ea" stroke-linecap="round" stroke-linejoin="round" stroke-width="3"/>
      <line id="Line_1070-6" data-name="Line 1070" x2="12.197" transform="translate(22.544 51.205)" fill="none" stroke="#0091ea" stroke-linecap="round" stroke-linejoin="round" stroke-width="3"/>
      <path id="Subtraction_22" data-name="Subtraction 22" d="M-1698.727,18597.549a16.909,16.909,0,0,1-12.036-4.986,16.919,16.919,0,0,1-4.986-12.039,16.907,16.907,0,0,1,4.986-12.035,16.91,16.91,0,0,1,12.036-4.986,16.917,16.917,0,0,1,12.04,4.986,16.906,16.906,0,0,1,4.986,12.035,16.911,16.911,0,0,1-4.986,12.039A16.917,16.917,0,0,1-1698.727,18597.549Zm0-23.047a6.028,6.028,0,0,0-6.021,6.021,6.03,6.03,0,0,0,6.021,6.025,6.032,6.032,0,0,0,6.026-6.025A6.03,6.03,0,0,0-1698.727,18574.5Z" transform="translate(1727.385 -18504.045)" fill="#abdaf9" stroke="#0091ea" stroke-linecap="round" stroke-linejoin="round" stroke-width="3"/>
    </g>
  </g>
  <path id="Path_4894" data-name="Path 4894" d="M23.321,25.674,10.3,14.227,23.321,2.78" transform="translate(79.021 25.203)" fill="none" stroke="#0091ea" stroke-linecap="round" stroke-linejoin="round" stroke-width="3"/>
</svg>
