<svg id="icon_24x24_devices" data-name="icon / 24x24 /  devices" xmlns="http://www.w3.org/2000/svg" width="24" height="24" viewBox="0 0 24 24">
  <g id="Group_9613" data-name="Group 9613" transform="translate(-0.599 -1.546)">
    <g id="Group_9608" data-name="Group 9608" transform="translate(2.395 3.237)">
      <path id="Path_4453" data-name="Path 4453" d="M15.82,4.782l-2.141,7.189a2.588,2.588,0,0,0-1.458-.441,2.644,2.644,0,0,0-1.469.441L8.611,4.782a4.428,4.428,0,0,1,3.61-1.545A4.418,4.418,0,0,1,15.82,4.782Z" transform="translate(-2 -3.237)" fill="#abdaf9"/>
      <g id="Group_9606" data-name="Group 9606" transform="translate(0 10.714)">
        <path id="Path_4454" data-name="Path 4454" d="M2.666,14.938l7.322-1.627a2.6,2.6,0,0,0,.324,1.49,2.65,2.65,0,0,0,1.1,1.069L6.172,21.236a4.427,4.427,0,0,1-3.106-2.4A4.417,4.417,0,0,1,2.666,14.938Z" transform="translate(-2.395 -13.311)" fill="#abdaf9"/>
      </g>
      <g id="Group_9607" data-name="Group 9607" transform="translate(11.413 10.714)">
        <path id="Path_4455" data-name="Path 4455" d="M21.872,14.938,14.55,13.311a2.6,2.6,0,0,1-.324,1.49,2.65,2.65,0,0,1-1.1,1.069l5.241,5.367a4.427,4.427,0,0,0,3.106-2.4A4.417,4.417,0,0,0,21.872,14.938Z" transform="translate(-13.126 -13.311)" fill="#abdaf9"/>
      </g>
    </g>
    <g id="Group_9611" data-name="Group 9611" transform="translate(2.395 3.237)">
      <path id="Path_4456" data-name="Path 4456" d="M14.792,13.665a2.637,2.637,0,1,1-2.629-2.63,2.588,2.588,0,0,1,1.458.441A2.617,2.617,0,0,1,14.792,13.665Z" transform="translate(-1.942 -2.742)" fill="none" stroke="#0091ea" stroke-linecap="round" stroke-linejoin="round" stroke-width="1.5"/>
      <path id="Path_4457" data-name="Path 4457" d="M15.82,4.782l-2.141,7.189a2.588,2.588,0,0,0-1.458-.441,2.644,2.644,0,0,0-1.469.441L8.611,4.782a4.428,4.428,0,0,1,3.61-1.545A4.418,4.418,0,0,1,15.82,4.782Z" transform="translate(-2 -3.237)" fill="none" stroke="#0091ea" stroke-linecap="round" stroke-linejoin="round" stroke-width="1.5"/>
      <g id="Group_9609" data-name="Group 9609" transform="translate(0 10.714)">
        <path id="Path_4458" data-name="Path 4458" d="M2.666,14.938l7.322-1.627a2.6,2.6,0,0,0,.324,1.49,2.65,2.65,0,0,0,1.1,1.069L6.172,21.236a4.427,4.427,0,0,1-3.106-2.4A4.417,4.417,0,0,1,2.666,14.938Z" transform="translate(-2.395 -13.311)" fill="none" stroke="#0091ea" stroke-linecap="round" stroke-linejoin="round" stroke-width="1.5"/>
      </g>
      <g id="Group_9610" data-name="Group 9610" transform="translate(11.413 10.714)">
        <path id="Path_4459" data-name="Path 4459" d="M21.872,14.938,14.55,13.311a2.6,2.6,0,0,1-.324,1.49,2.65,2.65,0,0,1-1.1,1.069l5.241,5.367a4.427,4.427,0,0,0,3.106-2.4A4.417,4.417,0,0,0,21.872,14.938Z" transform="translate(-13.126 -13.311)" fill="none" stroke="#0091ea" stroke-linecap="round" stroke-linejoin="round" stroke-width="1.5"/>
      </g>
    </g>
    <g id="Group_9612" data-name="Group 9612" transform="translate(5.267 7.08)">
      <path id="Path_4460" data-name="Path 4460" d="M19.369,14.718A7.675,7.675,0,0,0,17.45,8.591" transform="translate(-4.31 -6.739)" fill="none" stroke="#0091ea" stroke-linecap="round" stroke-linejoin="round" stroke-width="1.5"/>
      <path id="Path_4461" data-name="Path 4461" d="M7.6,19.291a7.782,7.782,0,0,0,4.694,1.566,7.665,7.665,0,0,0,1.2-.1" transform="translate(-4.936 -6.06)" fill="none" stroke="#0091ea" stroke-linecap="round" stroke-linejoin="round" stroke-width="1.5"/>
      <path id="Path_4462" data-name="Path 4462" d="M9.181,6.85a7.462,7.462,0,0,0-1.064.572A7.709,7.709,0,0,0,5.095,11.35" transform="translate(-5.095 -6.85)" fill="none" stroke="#0091ea" stroke-linecap="round" stroke-linejoin="round" stroke-width="1.5"/>
    </g>
  </g>
  <rect id="Rectangle_3067" data-name="Rectangle 3067" width="24" height="24" fill="none"/>
  <rect id="Rectangle_3068" data-name="Rectangle 3068" width="24" height="24" fill="none"/>
</svg>
