<?xml version="1.0" encoding="utf-8"?>
<!-- Generator: Adobe Illustrator 27.2.0, SVG Export Plug-In . SVG Version: 6.00 Build 0)  -->
<svg version="1.1" id="Vrstva_1" xmlns="http://www.w3.org/2000/svg" xmlns:xlink="http://www.w3.org/1999/xlink" x="0px" y="0px"
	 width="107.4px" height="22.7px" viewBox="0 0 107.4 22.7" style="enable-background:new 0 0 107.4 22.7;" xml:space="preserve">
<style type="text/css">
	.st0{fill:#0091EA;}
	.st1{fill:#FFAA00;}
</style>
<g>
	<rect id="Rectangle_3510" y="9.5" class="st0" width="8" height="13.2"/>
	<path id="Path_5054" class="st0" d="M27.5,4.1L27.5,4.1C26.6,4,25.7,3.9,24.8,4h-3.2v18.7h-7.8V0h15.8c3.2,0,5.4,0.5,6.7,1.3
		c1.2,0.9,1.8,2.3,1.7,3.8v17.6h-8.6V7.8c0-0.8,0-1.5-0.2-2.3l-0.1-0.1C28.9,4.7,28.3,4.2,27.5,4.1"/>
	<path id="Path_5055" class="st0" d="M63.6,9.4v3.9H51.7l0,5.4h11.9v4H43.9V9.4L63.6,9.4z"/>
	<rect id="Rectangle_3511" x="43.9" class="st0" width="19.6" height="5.1"/>
	<path id="Path_5056" class="st0" d="M100.3,5.1H85.8c0-0.1,0-0.2,0.1-0.4c0.2-0.5,0.5-1.1,0.9-1.5c0.9-1.1,2.1-1.9,3.4-2.4
		C91.8,0.3,93.6,0,95.3,0l5,0V5.1z"/>
	<path id="Path_5057" class="st0" d="M82.5,22.7h8.1c1.1,0,2.2-0.2,3.3-0.4c3.1-0.6,6.5-2.6,6.5-6c0-2.3-1.4-3.7-2.9-5.2
		c-0.9-0.9-1.7-1.6-1.7-1.6h-9.3l5,4.6c0.8,0.6,1.2,1.5,1.1,2.5c-0.3,1.3-1.6,2.3-3,2.2H77.2V0h-7.7v22.7H82.5z"/>
	<rect id="Rectangle_3512" class="st1" width="8" height="5.1"/>
	<path id="Path_5058" class="st0" d="M104.3,2.4v-1h0.7c0.4,0,0.7,0.1,0.7,0.5c0,0.5-0.4,0.5-0.9,0.5L104.3,2.4z M104.3,2.7h0.6
		l0.8,1.3h0.4l-0.9-1.3c0.4,0,0.8-0.4,0.7-0.8c0-0.5-0.3-0.8-1-0.8h-1.1V4h0.4V2.7z M104.8,0.5c1.2,0,2.1,1,2,2.2c0,1.2-1,2.1-2.2,2
		c-1.1,0-2-1-2-2.1C102.7,1.4,103.6,0.5,104.8,0.5C104.8,0.5,104.8,0.5,104.8,0.5 M104.8,0.1c-1.4,0-2.5,1-2.6,2.4c0,0,0,0,0,0.1
		c0.1,1.4,1.4,2.5,2.8,2.4c1.3-0.1,2.3-1.1,2.4-2.4C107.4,1.2,106.3,0.1,104.8,0.1C104.9,0.1,104.9,0.1,104.8,0.1"/>
</g>
</svg>
