<?xml version="1.0" encoding="UTF-8"?>
<svg id="icoPlay" xmlns="http://www.w3.org/2000/svg" width="30" height="30" version="1.1" viewBox="0 0 30 30">
  <!-- Generator: Adobe Illustrator 29.1.0, SVG Export Plug-In . SVG Version: 2.1.0 Build 142)  -->
  <defs>
    <style>
      .st0 {
        opacity: .8;
      }

      .st0, .st1 {
        isolation: isolate;
      }

      .st1 {
        fill: #8e9b9e;
        opacity: .2;
      }
    </style>
  </defs>
  <circle id="Ellipse_392" class="st1" cx="15" cy="15" r="15"/>
  <path id="Polygon_18" d="M20,13.3c1,.6,1.3,1.8.7,2.7-.2.3-.4.5-.7.7l-6,3.5c-1,.6-2.2.2-2.7-.7-.2-.3-.3-.7-.3-1v-7c0-1.1.9-2,2-2,.4,0,.7,0,1,.3l6,3.5Z"/>
  <g id="Ellipse_3921" data-name="Ellipse_392" class="st0">
    <path d="M15,1.5c7.4,0,13.5,6.1,13.5,13.5s-6.1,13.5-13.5,13.5S1.5,22.4,1.5,15,7.6,1.5,15,1.5M15,0C6.7,0,0,6.7,0,15s6.7,15,15,15,15-6.7,15-15S23.3,0,15,0h0Z"/>
  </g>
</svg>