<?xml version="1.0" encoding="utf-8"?>
<!-- Generator: Adobe Illustrator 27.1.1, SVG Export Plug-In . SVG Version: 6.00 Build 0)  -->
<svg version="1.1" id="Vrstva_1" xmlns="http://www.w3.org/2000/svg" xmlns:xlink="http://www.w3.org/1999/xlink" x="0px" y="0px"
	 width="24px" height="24px" viewBox="0 0 24 24" style="enable-background:new 0 0 24 24;" xml:space="preserve">
<style type="text/css">
	.st0{fill:none;}
	.st1{fill:#0091EA;}
	.st2{fill:#FFFFFF;}
	.st3{fill-rule:evenodd;clip-rule:evenodd;fill:#0091EA;stroke:#0091EA;stroke-width:0.1;stroke-miterlimit:10;}
	.st4{fill-rule:evenodd;clip-rule:evenodd;fill:#0091EA;}
</style>
<g>
	<rect id="Rectangle_3113" class="st0" width="24" height="24"/>
	<g>
		<path id="path2303" class="st1" d="M14.6,2.9c-1.4,0-2.4,0.1-3.5,0.5c-0.4,0.1-1,0.4-1.4,0.5c-0.4,0.2-1,0.6-1.5,0.9
			C7.7,5.2,7,5.7,6.6,6s-1,1-1.3,1.3C5,7.7,4.5,8.3,4.2,8.7S3.7,9.5,3.7,9.4c-0.1,0,0.6-1.3,1.1-2l0.5-0.7L4.8,7.1
			c-0.3,0.3-0.9,1-1.2,1.4c-0.4,0.5-0.8,1.2-1,1.6c-0.2,0.4-0.5,1.1-0.7,1.6l-0.3,0.8V14v1.5l0.2,0.7c0.1,0.4,0.4,1,0.6,1.3
			s0.6,0.9,0.9,1.2s0.9,0.8,1.2,1c1,0.6,1.9,1,3.1,1.2C8,21,8.8,21.1,9.4,21.1c0.6,0,1.5-0.1,2-0.1c0.5-0.1,1.4-0.3,2-0.4
			c0.6-0.2,1.4-0.5,1.9-0.7l0.9-0.4l0.6,0.2c0.7,0.2,3.6,0.9,3.7,0.8c0,0-0.3-0.7-0.8-1.6l-0.8-1.6l0.7-0.8c0.4-0.5,0.9-1.2,1.2-1.6
			s0.7-1.1,0.9-1.6c0.2-0.5,0.5-1.2,0.6-1.5c0.1-0.4,0.2-1,0.3-1.4c0.1-0.5,0.1-1,0-1.5c-0.1-0.4-0.2-1-0.3-1.4
			c-0.1-0.3-0.4-0.9-0.6-1.3c-0.5-0.9-1.5-1.9-2.2-2.3c-0.3-0.2-0.6-0.3-0.6-0.3S19,3.8,19.3,4c0.5,0.4,1.1,1.1,1.4,1.7l0.2,0.4
			l-0.2-0.3c-0.1-0.1-0.5-0.6-0.9-0.9c-0.5-0.5-0.8-0.8-1.4-1c-0.5-0.2-1.1-0.4-1.6-0.6C16.1,3,15.5,2.9,14.6,2.9z M14.5,3.9
			c1,0,1.4,0,1.9,0.2c0.4,0.1,0.9,0.3,1.3,0.5C18.2,4.8,18.5,5,19,5.5s0.8,0.8,1,1.4c0.2,0.4,0.4,1,0.5,1.4c0.1,0.3,0.1,0.9,0.1,1.3
			c0,1.2-0.3,2.5-0.9,3.7c-0.2,0.3-0.5,0.9-0.7,1.2s-0.7,0.9-1.1,1.3s-0.7,0.7-0.7,0.8s0.3,0.5,0.7,1.1c0.4,0.6,0.7,1.1,0.7,1.1v0.1
			c0,0-0.6-0.2-1.3-0.5c-0.7-0.3-1.4-0.5-1.5-0.5s-0.4,0.1-0.7,0.2c-0.9,0.4-2.5,0.9-3.3,1c-0.5,0.1-1.2,0.1-1.5,0.1
			c-1.4,0-2.4-0.3-3.6-0.8c-0.7-0.3-1-0.5-1.6-1.2c-0.6-0.6-0.8-0.9-1.1-1.4c-0.2-0.4-0.4-0.9-0.5-1.2c-0.2-0.7-0.2-2,0-2.8
			c0.1-0.4,0.4-1.1,0.6-1.6s0.7-1.2,1-1.6c0.3-0.4,0.9-1,1.3-1.4c0.8-0.8,1.9-1.5,2.9-2c0.9-0.4,2-0.8,3.1-1
			C13.1,4,13.6,3.9,14.5,3.9z"/>
		<path id="path2299" class="st1" d="M10.9,15.1v-1.7l-1.4,0.9c-0.8,0.5-1.4,0.9-1.5,0.9c-0.1-0.1-1.2-2-1.2-2s0.7-0.4,1.4-0.9
			s1.4-0.8,1.4-0.9c0,0-0.7-0.4-1.4-0.9C7.4,10,6.8,9.7,6.8,9.6c0,0,1.1-1.9,1.2-2c0,0,0.6,0.4,1.3,0.8c0.7,0.5,1.4,0.9,1.4,0.9
			c0.1,0,0.1-0.2,0.1-1.6V6H12h1.2l-0.1,1.7L13,9.4L13.6,9c0.3-0.2,0.9-0.6,1.3-0.9c0.6-0.1,1-0.4,1.1-0.4s0.3,0.3,0.7,1
			c0.3,0.6,0.6,1,0.6,1S16.7,10,16,10.4c-0.7,0.4-1.4,0.8-1.5,0.9l-0.2,0.1l1.4,0.8c0.8,0.4,1.4,0.8,1.5,0.8c0.1,0-0.1,0.4-0.5,1.1
			c-0.5,0.9-0.6,1-0.8,0.9c-0.1,0-0.7-0.4-1.3-0.8c-0.7-0.4-1.2-0.8-1.3-0.8c-0.1-0.1-0.1,0.2-0.1,1.6l0.1,1.7h-1.2h-1.2L10.9,15.1z
			"/>
		<path id="path2329" class="st3" d="M1.8,16c-0.3-0.8-0.4-1.4-0.4-2.2s0.1-1.1,0.5-2.2L1.8,16z"/>
		<path id="path2339" class="st4" d="M1.5,15c-0.1-0.6-0.1-1.3-0.1-1.8c0-0.1,0-0.1,0-0.2v-0.1v0.6c0,0.3,0,0.8,0,1.1L1.5,15L1.5,15
			z"/>
	</g>
</g>
</svg>
