<?xml version="1.0" encoding="utf-8"?>
<!-- Generator: Adobe Illustrator 27.4.1, SVG Export Plug-In . SVG Version: 6.00 Build 0)  -->
<svg version="1.1" id="Vrstva_1" xmlns="http://www.w3.org/2000/svg" xmlns:xlink="http://www.w3.org/1999/xlink" x="0px" y="0px"
	 width="24px" height="24px" viewBox="0 0 24 24" style="enable-background:new 0 0 24 24;" xml:space="preserve">
<style type="text/css">
	.st0{fill:none;}
	.st1{fill:#8E9B9E;}
</style>
<g id="Group_10004" transform="translate(-97 -115)">
	<path id="Path_3228" class="st0" d="M97,115h24v24H97V115z"/>
	<path id="calendar-alt" class="st1" d="M106.3,128.3h-1.4c-0.2,0-0.4-0.2-0.4-0.4v-1.4c0-0.2,0.2-0.4,0.4-0.4h1.4
		c0.2,0,0.4,0.2,0.4,0.4v1.4C106.7,128.1,106.5,128.3,106.3,128.3z M110.1,127.9v-1.4c0-0.2-0.2-0.4-0.4-0.4h-1.4
		c-0.2,0-0.4,0.2-0.4,0.4v1.4c0,0.2,0.2,0.4,0.4,0.4h1.4C110,128.3,110.1,128.1,110.1,127.9z M113.6,127.9v-1.4
		c0-0.2-0.2-0.4-0.4-0.4h-1.4c-0.2,0-0.4,0.2-0.4,0.4v1.4c0,0.2,0.2,0.4,0.4,0.4h1.4C113.4,128.3,113.6,128.1,113.6,127.9
		L113.6,127.9z M110.1,131.3v-1.4c0-0.2-0.2-0.4-0.4-0.4h-1.4c-0.2,0-0.4,0.2-0.4,0.4v1.4c0,0.2,0.2,0.4,0.4,0.4h1.4
		C110,131.7,110.1,131.5,110.1,131.3z M106.7,131.3v-1.4c0-0.2-0.2-0.4-0.4-0.4h-1.4c-0.2,0-0.4,0.2-0.4,0.4v1.4
		c0,0.2,0.2,0.4,0.4,0.4h1.4C106.5,131.7,106.7,131.5,106.7,131.3z M113.6,131.3v-1.4c0-0.2-0.2-0.4-0.4-0.4h-1.4
		c-0.2,0-0.4,0.2-0.4,0.4v1.4c0,0.2,0.2,0.4,0.4,0.4h1.4C113.4,131.7,113.6,131.5,113.6,131.3z M117,122v12.6c0,0.9-0.8,1.7-1.7,1.7
		h-12.6c-0.9,0-1.7-0.8-1.7-1.7V122c0-0.9,0.8-1.7,1.7-1.7h1.7v-1.9c0-0.2,0.2-0.4,0.4-0.4h1.4c0.2,0,0.4,0.2,0.4,0.4v1.9h4.6v-1.9
		c0-0.2,0.2-0.4,0.4-0.4h1.4c0.2,0,0.4,0.2,0.4,0.4v1.9h1.7C116.2,120.3,117,121.1,117,122z M115.3,134.4v-10.6h-12.6v10.6
		c0,0.1,0.1,0.2,0.2,0.2h12.1C115.2,134.6,115.3,134.5,115.3,134.4z"/>
</g>
</svg>
