<?xml version="1.0" encoding="utf-8"?>
<!-- Generator: Adobe Illustrator 27.4.1, SVG Export Plug-In . SVG Version: 6.00 Build 0)  -->
<svg version="1.1" id="Vrstva_1" xmlns="http://www.w3.org/2000/svg" xmlns:xlink="http://www.w3.org/1999/xlink" x="0px" y="0px"
	 width="24px" height="24px" viewBox="0 0 24 24" style="enable-background:new 0 0 24 24;" xml:space="preserve">
<style type="text/css">
	.st0{fill:none;}
	.st1{fill:#0091EA;}
</style>
<g id="Group_9997" transform="translate(-24 -149)">
	<rect id="Rectangle_558" x="24" y="149" class="st0" width="24" height="24"/>
	<path id="home-lg-alt" class="st1" d="M36,156l-7.6,6.8c-0.1,0-0.1,0.1-0.2,0.1v6.5c0,0.3,0.2,0.6,0.6,0.6c0,0,0,0,0,0h4.4
		c0.3,0,0.6-0.3,0.6-0.6c0,0,0,0,0,0v-4.5c0-0.3,0.2-0.6,0.6-0.6c0,0,0,0,0,0h3.3c0.3,0,0.6,0.3,0.6,0.6c0,0,0,0,0,0v4.5
		c0,0.3,0.2,0.6,0.6,0.6c0,0,0,0,0,0h4.4c0.3,0,0.6-0.3,0.6-0.6c0,0,0,0,0,0v-6.5c-0.1,0-0.1-0.1-0.2-0.1L36,156z M45.8,160.3
		l-8.9-7.9c-0.5-0.5-1.3-0.5-1.9,0l-8.9,7.9c-0.2,0.2-0.2,0.6,0,0.8l0.7,0.8c0.2,0.2,0.5,0.3,0.8,0c0,0,0,0,0,0l8-7.1
		c0.2-0.2,0.5-0.2,0.7,0l8,7.1c0.2,0.2,0.6,0.2,0.8,0c0,0,0,0,0,0l0.7-0.8C46.1,160.9,46,160.5,45.8,160.3z"/>
</g>
</svg>
