<svg xmlns="http://www.w3.org/2000/svg" width="24" height="24" viewBox="0 0 24 24">
  <g id="Group_10216" data-name="Group 10216" transform="translate(-420 -147)">
    <g id="icon_24x24_sett" data-name="icon / 24x24 / sett" transform="translate(420 147)">
      <g id="Group_9692" data-name="Group 9692" transform="translate(-0.673 -0.674)">
        <g id="Group_9691" data-name="Group 9691" transform="translate(8.217 8.217)">
          <circle id="Ellipse_305" data-name="Ellipse 305" cx="4.456" cy="4.456" r="4.456" fill="#abdaf9"/>
          <circle id="Ellipse_306" data-name="Ellipse 306" cx="4.456" cy="4.456" r="4.456" fill="none" stroke="#0091ea" stroke-linecap="round" stroke-linejoin="round" stroke-width="1.5"/>
        </g>
        <path id="Path_4547" data-name="Path 4547" d="M22.075,14.6V10.746H19.888a7.4,7.4,0,0,0-.75-1.813l1.546-1.546L17.959,4.663,16.413,6.208a7.4,7.4,0,0,0-1.813-.75V3.272H10.746V5.459a7.4,7.4,0,0,0-1.813.75L7.388,4.663,4.663,7.388,6.208,8.934a7.4,7.4,0,0,0-.75,1.813H3.272V14.6H5.459a7.4,7.4,0,0,0,.75,1.813L4.663,17.959l2.725,2.725,1.546-1.546a7.4,7.4,0,0,0,1.813.75v2.187H14.6V19.888a7.4,7.4,0,0,0,1.813-.75l1.546,1.546,2.725-2.725-1.546-1.546a7.4,7.4,0,0,0,.75-1.813Z" fill="none" stroke="#0091ea" stroke-linecap="round" stroke-linejoin="round" stroke-width="1.5"/>
      </g>
      <rect id="Rectangle_3113" data-name="Rectangle 3113" width="24" height="24" fill="none"/>
    </g>
  </g>
</svg>
